<svg width="20" height="20" viewBox="0 0 20 20" fill="none" xmlns="http://www.w3.org/2000/svg">
<g clip-path="url(#clip0_136_785)">
<path d="M17.8203 9.46806L6.57812 2.59306C6.48349 2.53468 6.37499 2.50261 6.26382 2.50015C6.15265 2.49769 6.04284 2.52494 5.94571 2.57907C5.84859 2.63321 5.76766 2.71228 5.71128 2.80812C5.65491 2.90397 5.62512 3.01312 5.625 3.12431V16.8743C5.62512 16.9855 5.65491 17.0947 5.71128 17.1905C5.76766 17.2863 5.84859 17.3654 5.94571 17.4195C6.04284 17.4737 6.15265 17.5009 6.26382 17.4985C6.37499 17.496 6.48349 17.4639 6.57812 17.4056L17.8203 10.5306C17.9126 10.476 17.9891 10.3983 18.0423 10.3051C18.0954 10.212 18.1233 10.1066 18.1233 9.99931C18.1233 9.89207 18.0954 9.78667 18.0423 9.69351C17.9891 9.60036 17.9126 9.52265 17.8203 9.46806V9.46806Z" stroke="#D0D0D0" stroke-width="1.55556" stroke-linecap="round" stroke-linejoin="round"/>
</g>
<defs>
<clipPath id="clip0_136_785">
<rect width="20" height="20" fill="white"/>
</clipPath>
</defs>
</svg>
